<svg width="48" height="48" fill="none" xmlns="http://www.w3.org/2000/svg"><path d="M0 24C0 10.745 10.745 0 24 0s24 10.745 24 24-10.745 24-24 24S0 37.255 0 24z" fill="#000"/><path d="M24 .5C36.979.5 47.5 11.021 47.5 24S36.979 47.5 24 47.5.5 36.979.5 24 11.021.5 24 .5z" stroke="#000" stroke-opacity=".2"/><path fill-rule="evenodd" clip-rule="evenodd" d="M16.324 18.343 10.667 24l5.657 5.657L21.98 24l-5.657-5.657zm7.542-7.543-5.657 5.657 5.657 5.657 5.657-5.657-5.657-5.657zM18.21 31.543l5.657-5.657 5.657 5.657-5.657 5.657-5.657-5.657zm13.2-13.2L25.752 24l5.657 5.657L37.066 24l-5.657-5.657z" fill="#00D991"/></svg>