<svg width="78" height="20" fill="none" xmlns="http://www.w3.org/2000/svg"><path d="M40.48 0h-4.072v19.999h4.071V0zM.792.022h4.322v8.971l8.08-8.97h5.24l-7.412 8.223L18.913 20h-5.177l-5.762-8.431-2.86 3.177V20H.792V.022z" fill="#000" fill-opacity=".9"/><path fill-rule="evenodd" clip-rule="evenodd" d="M34.843 19.812h-2.067c-1.858 0-2.777-.81-2.735-2.41-.543.831-1.211 1.475-1.983 1.911-.794.436-1.733.665-2.86.665-1.65 0-2.986-.374-4.01-1.122-1.001-.768-1.502-1.827-1.502-3.198 0-1.557.584-2.762 1.733-3.592 1.169-.852 2.86-1.288 5.073-1.288h2.943v-.706c0-.665-.25-1.184-.751-1.578-.501-.395-1.17-.603-2.025-.603-.752 0-1.357.167-1.837.478-.48.332-.773.768-.857 1.308H20.02c.125-1.495.814-2.658 2.025-3.489 1.21-.83 2.818-1.266 4.822-1.266 2.088 0 3.717.457 4.844 1.37 1.148.914 1.733 2.243 1.733 3.967v5.17c0 .354.083.603.23.748.146.125.396.208.73.208h.439v3.427zm-8.393-6.355c-.835 0-1.503.166-1.983.52-.46.331-.69.788-.69 1.39 0 .52.188.914.585 1.226.397.311.94.457 1.608.457 1.065 0 1.9-.291 2.505-.893.605-.603.94-1.412.96-2.43v-.27H26.45z" fill="#000" fill-opacity=".9"/><path d="M45.886 14.931c.063.644.376 1.163.96 1.579.585.394 1.316.602 2.214.602.856 0 1.545-.125 2.046-.395.5-.29.751-.685.751-1.204 0-.374-.125-.665-.355-.852-.23-.186-.563-.332-.98-.394-.418-.104-1.107-.208-2.068-.312-1.315-.166-2.4-.394-3.256-.664-.856-.27-1.566-.686-2.067-1.267-.522-.581-.773-1.33-.773-2.284 0-.956.25-1.786.773-2.513.542-.748 1.294-1.308 2.254-1.724.96-.394 2.067-.602 3.32-.602 2.025.02 3.633.457 4.864 1.288 1.253.83 1.921 1.993 2.025 3.488h-3.862c-.063-.56-.355-.996-.898-1.35-.522-.353-1.19-.54-2.025-.54-.772 0-1.398.146-1.879.437-.459.29-.689.664-.689 1.142 0 .353.126.602.376.768.25.166.585.291.981.374.397.083 1.086.166 2.026.25 2.004.228 3.528.664 4.572 1.287 1.085.602 1.607 1.661 1.607 3.177 0 .955-.292 1.786-.856 2.513-.563.727-1.336 1.288-2.359 1.682-1.002.374-2.171.582-3.486.582-2.046 0-3.737-.457-5.01-1.35-1.295-.914-1.963-2.16-2.047-3.718h3.841zM70.125 6.729c-1.127-1.06-2.547-1.6-4.3-1.6-1.817 0-3.278.665-4.385 1.994V0h-4.07v19.999h4.07V12.46c0-1.267.272-2.243.856-2.949.585-.706 1.4-1.059 2.443-1.059 1.002 0 1.754.332 2.255.976.5.623.751 1.537.751 2.762V20h4.071v-7.975c0-2.471-.563-4.236-1.69-5.295zM73.382 5.296h4.07v14.682h-4.07V5.296zM76.848.581A1.972 1.972 0 0 0 75.408 0c-.564 0-1.065.208-1.462.581a1.89 1.89 0 0 0-.584 1.392c0 .56.208 1.038.584 1.412.397.374.898.582 1.462.582.563 0 1.064-.187 1.44-.582.376-.395.585-.851.585-1.412 0-.56-.21-1.038-.585-1.392z" fill="#000" fill-opacity=".9"/></svg>